<?xml version="1.0" encoding="UTF-8"?>
<svg xmlns="http://www.w3.org/2000/svg" width="1080" height="1920" viewBox="0 0 1080 1920" font-family="-apple-system,BlinkMacSystemFont,'Segoe UI',Inter,Roboto,sans-serif">
  <rect width="1080" height="1920" fill="#0b1220"/>
  <defs>
    <radialGradient id="vignette" cx="50%" cy="50%" r="80%">
      <stop offset="55%" stop-color="#0b1220" stop-opacity="0"/>
      <stop offset="100%" stop-color="#000000" stop-opacity="0.65"/>
    </radialGradient>
    <linearGradient id="areaGrad" x1="0" x2="0" y1="0" y2="1">
      <stop offset="0%"  stop-color="#22c55e" stop-opacity="0.55"/>
      <stop offset="100%" stop-color="#22c55e" stop-opacity="0"/>
    </linearGradient>
  </defs>
  <rect width="1080" height="1920" fill="url(#vignette)"/>

  <!-- Eyebrow -->
  <rect x="340" y="300" width="400" height="66" rx="33" fill="#22c55e" opacity="0.18" stroke="#22c55e" stroke-width="2"/>
  <text x="540" y="345" fill="#86efac" font-size="30" font-weight="800" letter-spacing="4" text-anchor="middle">THE BACKTEST</text>

  <!-- Title -->
  <text x="540" y="450" fill="#ffffff" font-size="72" font-weight="900" text-anchor="middle">+8.82 units</text>
  <text x="540" y="530" fill="#22c55e" font-size="72" font-weight="900" text-anchor="middle">58.2% · +11.2% ROI</text>
  <text x="540" y="590" fill="#94a3b8" font-size="28" font-weight="500" text-anchor="middle">82 bets · Rockies G1-2 UNDER @ -110 · 2023-2026</text>

  <!-- Y-axis -->
  <line x1="100" y1="700"  x2="100" y2="1500" stroke="#1e293b" stroke-width="2"/>
  <line x1="100" y1="1500" x2="1000" y2="1500" stroke="#1e293b" stroke-width="2"/>

  <!-- Zero line (emphasized) -->
  <line x1="100" y1="1400" x2="1000" y2="1400" stroke="#475569" stroke-width="2.5"/>

  <!-- Gridlines: v = -2, 0, 2, 4, 6, 8, 10, 12, 14 → y = 1500, 1400, 1300, 1200, 1100, 1000, 900, 800, 700 -->
  <line x1="100" y1="1300" x2="1000" y2="1300" stroke="#1e293b" stroke-width="1" stroke-dasharray="4,6"/>
  <line x1="100" y1="1200" x2="1000" y2="1200" stroke="#1e293b" stroke-width="1" stroke-dasharray="4,6"/>
  <line x1="100" y1="1100" x2="1000" y2="1100" stroke="#1e293b" stroke-width="1" stroke-dasharray="4,6"/>
  <line x1="100" y1="1000" x2="1000" y2="1000" stroke="#1e293b" stroke-width="1" stroke-dasharray="4,6"/>
  <line x1="100" y1="900"  x2="1000" y2="900"  stroke="#1e293b" stroke-width="1" stroke-dasharray="4,6"/>
  <line x1="100" y1="800"  x2="1000" y2="800"  stroke="#1e293b" stroke-width="1" stroke-dasharray="4,6"/>
  <line x1="100" y1="700"  x2="1000" y2="700"  stroke="#1e293b" stroke-width="1" stroke-dasharray="4,6"/>

  <text x="90" y="1508" fill="#64748b" font-size="24" text-anchor="end">-2</text>
  <text x="90" y="1408" fill="#cbd5e1" font-size="24" font-weight="700" text-anchor="end">0</text>
  <text x="90" y="1308" fill="#64748b" font-size="24" text-anchor="end">+2</text>
  <text x="90" y="1208" fill="#64748b" font-size="24" text-anchor="end">+4</text>
  <text x="90" y="1108" fill="#64748b" font-size="24" text-anchor="end">+6</text>
  <text x="90" y="1008" fill="#64748b" font-size="24" text-anchor="end">+8</text>
  <text x="90" y="908"  fill="#64748b" font-size="24" text-anchor="end">+10</text>
  <text x="90" y="808"  fill="#64748b" font-size="24" text-anchor="end">+12</text>
  <text x="90" y="708"  fill="#64748b" font-size="24" text-anchor="end">+14</text>

  <!-- Season dividers -->
  <line x1="383" y1="680" x2="383" y2="1520" stroke="#334155" stroke-width="1.5" stroke-dasharray="2,8"/>
  <line x1="672" y1="680" x2="672" y2="1520" stroke="#334155" stroke-width="1.5" stroke-dasharray="2,8"/>
  <line x1="983" y1="680" x2="983" y2="1520" stroke="#334155" stroke-width="1.5" stroke-dasharray="2,8"/>
  <text x="240"  y="1555" fill="#94a3b8" font-size="26" font-weight="700" text-anchor="middle">2023</text>
  <text x="528"  y="1555" fill="#94a3b8" font-size="26" font-weight="700" text-anchor="middle">2024</text>
  <text x="828"  y="1555" fill="#94a3b8" font-size="26" font-weight="700" text-anchor="middle">2025</text>
  <text x="990"  y="1555" fill="#94a3b8" font-size="22" font-weight="700" text-anchor="middle">'26</text>

  <!-- Filled area + polyline -->
  <path d="M 100,1450 L 111.1,1404.55 L 122.2,1359.1 L 133.3,1409.1 L 144.4,1363.65 L 155.6,1318.2 L 166.7,1272.75 L 177.8,1227.25 L 188.9,1181.8 L 200,1231.8 L 211.1,1281.8 L 222.2,1236.35 L 233.3,1190.9 L 244.4,1240.9 L 255.6,1195.45 L 266.7,1245.45 L 277.8,1200 L 288.9,1154.55 L 300,1204.55 L 311.1,1159.1 L 322.2,1209.1 L 333.3,1259.1 L 344.4,1213.65 L 355.6,1168.2 L 366.7,1218.2 L 377.8,1172.75 L 388.9,1222.75 L 400,1272.75 L 411.1,1322.75 L 422.2,1277.25 L 433.3,1327.25 L 444.4,1281.8 L 455.6,1331.8 L 466.7,1381.8 L 477.8,1336.35 L 488.9,1290.9 L 500,1245.45 L 511.1,1295.45 L 522.2,1250 L 533.3,1204.55 L 544.4,1159.1 L 555.6,1209.1 L 566.7,1259.1 L 577.8,1213.65 L 588.9,1263.65 L 600,1218.2 L 611.1,1172.75 L 622.2,1127.25 L 633.3,1081.8 L 644.4,1036.35 L 655.6,1086.35 L 666.7,1086.35 L 677.8,1040.9 L 688.9,995.45 L 700,1045.45 L 711.1,1000 L 722.2,954.55 L 733.3,1004.55 L 744.4,959.1 L 755.6,913.65 L 766.7,868.2 L 777.8,822.75 L 788.9,777.25 L 800,777.25 L 811.1,827.25 L 822.2,781.8 L 833.3,831.8 L 844.4,786.35 L 855.6,836.35 L 866.7,886.35 L 877.8,936.35 L 888.9,986.35 L 900,940.9 L 911.1,990.9 L 922.2,1040.9 L 933.3,995.45 L 944.4,950 L 955.6,950 L 966.7,904.55 L 977.8,954.55 L 988.9,1004.55 L 1000,959.1 L 1000,1400 L 100,1400 Z" fill="url(#areaGrad)"/>

  <polyline points="100,1450 111.1,1404.55 122.2,1359.1 133.3,1409.1 144.4,1363.65 155.6,1318.2 166.7,1272.75 177.8,1227.25 188.9,1181.8 200,1231.8 211.1,1281.8 222.2,1236.35 233.3,1190.9 244.4,1240.9 255.6,1195.45 266.7,1245.45 277.8,1200 288.9,1154.55 300,1204.55 311.1,1159.1 322.2,1209.1 333.3,1259.1 344.4,1213.65 355.6,1168.2 366.7,1218.2 377.8,1172.75 388.9,1222.75 400,1272.75 411.1,1322.75 422.2,1277.25 433.3,1327.25 444.4,1281.8 455.6,1331.8 466.7,1381.8 477.8,1336.35 488.9,1290.9 500,1245.45 511.1,1295.45 522.2,1250 533.3,1204.55 544.4,1159.1 555.6,1209.1 566.7,1259.1 577.8,1213.65 588.9,1263.65 600,1218.2 611.1,1172.75 622.2,1127.25 633.3,1081.8 644.4,1036.35 655.6,1086.35 666.7,1086.35 677.8,1040.9 688.9,995.45 700,1045.45 711.1,1000 722.2,954.55 733.3,1004.55 744.4,959.1 755.6,913.65 766.7,868.2 777.8,822.75 788.9,777.25 800,777.25 811.1,827.25 822.2,781.8 833.3,831.8 844.4,786.35 855.6,836.35 866.7,886.35 877.8,936.35 888.9,986.35 900,940.9 911.1,990.9 922.2,1040.9 933.3,995.45 944.4,950 955.6,950 966.7,904.55 977.8,954.55 988.9,1004.55 1000,959.1"
    fill="none" stroke="#22c55e" stroke-width="4" stroke-linejoin="round" stroke-linecap="round"/>

  <!-- Start marker -->
  <circle cx="100" cy="1450" r="10" fill="#ef4444" stroke="#0b1220" stroke-width="3"/>
  <text x="100" y="1485" fill="#f87171" font-size="22" font-weight="700" text-anchor="middle">start</text>

  <!-- Peak marker -->
  <circle cx="788.9" cy="777.25" r="14" fill="#facc15" stroke="#0b1220" stroke-width="4"/>
  <text x="788.9" y="745" fill="#facc15" font-size="28" font-weight="800" text-anchor="middle">★ +12.45u</text>

  <!-- End marker -->
  <circle cx="1000" cy="959.1" r="14" fill="#22c55e" stroke="#0b1220" stroke-width="4"/>
  <g transform="translate(810,880)">
    <rect x="0" y="0" width="220" height="64" rx="10" fill="#22c55e"/>
    <text x="110" y="42" fill="#0b1220" font-size="30" font-weight="900" text-anchor="middle">+8.82u</text>
  </g>

  <!-- Stats panel -->
  <g transform="translate(540,1680)" text-anchor="middle">
    <rect x="-480" y="0" width="960" height="200" rx="20" fill="#1e293b" opacity="0.55" stroke="#334155" stroke-width="1.5"/>

    <text x="-320" y="60" fill="#94a3b8" font-size="22" font-weight="600" letter-spacing="2">BETS</text>
    <text x="-320" y="115" fill="#ffffff" font-size="44" font-weight="900">82</text>
    <text x="-320" y="150" fill="#94a3b8" font-size="20">46W-33L-3P</text>

    <line x1="-180" y1="40" x2="-180" y2="160" stroke="#475569" stroke-width="1.5"/>

    <text x="-30" y="60" fill="#94a3b8" font-size="22" font-weight="600" letter-spacing="2">WIN RATE</text>
    <text x="-30" y="115" fill="#22c55e" font-size="44" font-weight="900">58.2%</text>
    <text x="-30" y="150" fill="#94a3b8" font-size="20">BE: 52.4%</text>

    <line x1="130" y1="40" x2="130" y2="160" stroke="#475569" stroke-width="1.5"/>

    <text x="300" y="60" fill="#94a3b8" font-size="22" font-weight="600" letter-spacing="2">ROI</text>
    <text x="300" y="115" fill="#22c55e" font-size="44" font-weight="900">+11.2%</text>
    <text x="300" y="150" fill="#94a3b8" font-size="20">@ -110</text>
  </g>

</svg>
